<svg id="Layer_1" data-name="Layer 1" xmlns="http://www.w3.org/2000/svg" viewBox="0 0 243.49 206"><defs><style>.cls-1{fill:#3cc7f1;}.cls-2{fill:#00008b;}</style></defs><title>huisinfo ( Blue-Dark Blue )</title><path class="cls-1" d="M92.47,72.71,128,46.59,105.47,30a25.87,25.87,0,0,0-30.62,0L16.79,72.71A25.86,25.86,0,0,0,6.25,93.54V205.16A25.84,25.84,0,0,0,32.09,231H81.93V93.54A25.89,25.89,0,0,1,92.47,72.71Z" transform="translate(-6.25 -25)"/><path class="cls-2" d="M239.21,72.71,181.15,30a25.87,25.87,0,0,0-30.62,0L128,46.59l35.53,26.12a25.88,25.88,0,0,1,10.54,20.83V231h49.84a25.84,25.84,0,0,0,25.84-25.84V93.54A25.85,25.85,0,0,0,239.21,72.71Z" transform="translate(-6.25 -25)"/><rect class="cls-2" x="94.29" y="96.42" width="21.8" height="21.8"/><rect class="cls-2" x="127.4" y="96.42" width="21.8" height="21.8"/><rect class="cls-2" x="94.29" y="129.53" width="21.8" height="21.8"/><rect class="cls-2" x="127.4" y="129.53" width="21.8" height="21.8"/></svg>
