<?xml version="1.0" standalone="no"?>
<!DOCTYPE svg PUBLIC "-//W3C//DTD SVG 20010904//EN"
 "http://www.w3.org/TR/2001/REC-SVG-20010904/DTD/svg10.dtd">
<svg version="1.0" xmlns="http://www.w3.org/2000/svg"
 width="972.000000pt" height="972.000000pt" viewBox="0 0 972.000000 972.000000"
 preserveAspectRatio="xMidYMid meet">
<metadata>
Created by potrace 1.11, written by Peter Selinger 2001-2013
</metadata>
<g transform="translate(0.000000,972.000000) scale(0.100000,-0.100000)"
fill="#000000" stroke="none">
<path d="M3228 8965 c-2 -3 -24 -7 -49 -10 -24 -3 -69 -13 -99 -22 -30 -9 -61
-17 -68 -19 -60 -11 -294 -146 -349 -200 -7 -7 -35 -27 -63 -45 -27 -18 -50
-36 -50 -41 0 -4 -4 -8 -9 -8 -5 0 -64 -40 -130 -90 -66 -49 -125 -90 -131
-90 -5 0 -10 -4 -10 -8 0 -4 -46 -41 -102 -82 -57 -41 -107 -78 -113 -82 -5
-5 -44 -33 -85 -63 -41 -30 -84 -61 -95 -69 -30 -23 -89 -67 -137 -102 -176
-128 -336 -246 -349 -259 -9 -8 -19 -15 -22 -15 -4 0 -15 -7 -24 -15 -19 -15
-267 -200 -304 -225 -21 -15 -64 -47 -84 -63 -5 -4 -50 -37 -100 -73 -49 -35
-97 -70 -105 -77 -8 -7 -58 -43 -110 -82 -52 -38 -99 -73 -105 -77 -5 -5 -46
-35 -90 -67 -115 -85 -233 -204 -258 -258 -6 -13 -13 -23 -17 -23 -11 0 -99
-186 -120 -253 -19 -62 -23 -79 -40 -172 -10 -56 -8 -4735 3 -4775 3 -14 9
-38 12 -55 8 -40 46 -157 55 -170 4 -5 11 -21 15 -35 8 -24 90 -163 117 -196
17 -22 171 -175 194 -193 37 -31 177 -111 222 -127 26 -10 51 -21 57 -26 5 -4
19 -8 30 -8 12 0 25 -3 29 -7 3 -4 12 -8 19 -9 25 -4 63 -13 87 -21 14 -4 508
-9 1098 -10 l1072 -4 0 38 c0 21 1 1289 3 2818 1 1529 6 2791 10 2805 4 14 9
39 13 55 10 52 35 128 65 193 16 35 29 65 29 68 0 8 69 111 107 159 51 65 164
175 180 175 6 0 13 4 15 8 2 5 73 60 158 123 85 62 160 117 165 122 10 8 138
101 184 135 14 9 62 45 108 80 46 34 87 62 92 62 5 0 11 4 13 8 2 4 50 43 108
85 58 43 112 83 120 90 8 7 26 19 40 28 14 9 36 26 49 38 13 11 28 21 32 21 4
0 14 6 21 13 7 7 31 26 53 42 22 17 44 33 50 38 48 36 86 64 105 77 61 41 111
83 108 90 -3 8 -232 180 -318 240 -19 13 -37 27 -40 31 -3 3 -24 19 -46 35
-103 72 -300 219 -310 231 -6 7 -15 13 -19 13 -4 0 -26 15 -49 33 -23 18 -53
40 -67 49 -14 9 -32 23 -40 30 -8 8 -21 17 -29 21 -8 4 -33 18 -55 32 -101 62
-246 117 -350 132 -48 6 -291 13 -297 8z"/>
<path d="M6248 8965 c-2 -3 -22 -7 -44 -10 -21 -3 -50 -7 -64 -11 -14 -3 -30
-6 -37 -8 -7 -1 -16 -5 -19 -9 -4 -4 -16 -7 -26 -7 -23 0 -168 -65 -223 -99
-52 -34 -176 -122 -193 -138 -7 -7 -17 -13 -20 -13 -4 0 -25 -16 -47 -35 -22
-19 -43 -35 -47 -35 -4 0 -13 -6 -20 -13 -7 -7 -42 -33 -78 -59 -36 -26 -69
-51 -75 -55 -5 -5 -32 -24 -60 -43 -27 -19 -52 -38 -55 -41 -3 -3 -39 -30 -80
-60 -81 -58 -83 -59 -119 -89 -13 -11 -27 -20 -30 -20 -3 0 -19 -11 -34 -25
-15 -14 -27 -23 -27 -20 0 3 -8 -3 -18 -12 -11 -10 -31 -27 -46 -37 l-26 -19
67 -49 c38 -27 111 -81 163 -119 143 -106 322 -237 349 -257 69 -50 277 -203
286 -210 78 -60 137 -102 144 -102 5 0 11 -4 13 -8 2 -5 32 -30 68 -56 36 -26
76 -56 90 -66 54 -41 129 -96 150 -110 12 -8 28 -19 34 -25 6 -5 37 -29 69
-53 139 -104 263 -266 329 -432 28 -69 51 -145 52 -170 1 -8 4 -19 7 -25 3 -5
6 -26 8 -46 1 -19 4 -44 6 -55 2 -10 4 -1271 4 -2802 l1 -2783 1068 4 c587 1
1078 6 1092 10 14 5 34 9 45 11 64 10 234 71 246 89 3 5 9 7 11 5 3 -1 43 21
89 51 81 52 249 207 249 229 0 6 4 12 8 14 13 5 67 88 101 156 40 79 87 221
98 292 4 30 8 1117 8 2415 l0 2360 -23 93 c-13 51 -30 109 -38 128 -8 18 -14
36 -14 39 1 12 -76 144 -115 200 -63 89 -152 177 -246 244 -24 17 -55 40 -69
51 -14 11 -65 49 -115 85 -49 36 -97 71 -105 78 -8 7 -56 41 -105 76 -50 36
-92 67 -95 71 -3 3 -22 16 -42 30 -21 14 -38 28 -38 33 0 4 -4 7 -10 7 -5 0
-42 25 -82 55 -107 81 -106 81 -198 148 -47 34 -86 65 -88 69 -2 4 -8 8 -13 8
-5 0 -17 7 -26 15 -10 8 -65 49 -123 91 -188 138 -305 224 -315 232 -5 4 -28
21 -50 37 -22 17 -41 33 -43 38 -2 4 -8 7 -14 7 -6 0 -22 10 -37 23 -15 12
-40 31 -56 42 -15 11 -36 28 -47 38 -10 9 -21 17 -25 17 -3 0 -59 41 -125 90
-65 50 -121 90 -124 90 -3 0 -11 6 -18 13 -7 6 -24 20 -37 29 -56 41 -215 158
-224 166 -5 4 -39 28 -75 52 -36 25 -67 47 -70 50 -10 10 -136 69 -190 89 -56
20 -106 34 -170 46 -43 9 -295 17 -302 10z"/>
<path d="M3764 4686 c0 -237 3 -433 7 -436 6 -4 811 -5 854 -1 7 1 9 148 8
423 0 233 -1 428 -2 434 -1 8 -129 11 -434 11 l-432 0 -1 -431z"/>
<path d="M5086 5111 c-5 -12 0 -846 6 -856 5 -8 731 -13 848 -6 14 1 16 51 15
434 l0 432 -433 1 c-238 0 -434 -2 -436 -5z"/>
<path d="M3765 3360 l0 -435 432 0 c283 0 434 3 436 10 1 5 2 201 2 435 l-1
425 -435 0 -434 0 0 -435z"/>
<path d="M5091 3790 c-5 -4 -7 -835 -2 -860 1 -7 861 -7 862 0 5 16 4 860 -1
861 -17 4 -853 3 -859 -1z"/>
</g>
</svg>
